PathFileType	4	(X/Y/Z)	/Users/itak/Documents/Research/Walk-IL/dataset/trc/00459_00167.trc
DataRate	CameraRate	NumFrames	NumMarkers	Units	OrigDataRate	OrigDataStartFrame	OrigNumFrames
100.000000	100.000000	4	53	mm	100.000000	518	592
Frame#	Time	RPSI			LPSI			L3			STRN			T10			C7			CLAV			RBAK			LBAK			LSHO			LUPA			LAEL			LAOL			LWTS			LWPS			LFRA			LIFD			LHPS			LHTS			RSHO			RUPA			RAEL			RAOL			RWTS			RWPS			RFRA			RIFD			RHTS			RHPS			RBHD			LFHD			RFHD			LBHD			LHIP			RHIP			RASI			LASI			LKNE			LTHI			LANK			LTIP			LTOE			LMT1			LMT5			LHEE			RKNE			RTHI			RANK			RTIP			RTOE			RMT1			RMT5			RHEE			
		X1	Y1	Z1	X2	Y2	Z2	X3	Y3	Z3	X4	Y4	Z4	X5	Y5	Z5	X6	Y6	Z6	X7	Y7	Z7	X8	Y8	Z8	X9	Y9	Z9	X10	Y10	Z10	X11	Y11	Z11	X12	Y12	Z12	X13	Y13	Z13	X14	Y14	Z14	X15	Y15	Z15	X16	Y16	Z16	X17	Y17	Z17	X18	Y18	Z18	X19	Y19	Z19	X20	Y20	Z20	X21	Y21	Z21	X22	Y22	Z22	X23	Y23	Z23	X24	Y24	Z24	X25	Y25	Z25	X26	Y26	Z26	X27	Y27	Z27	X28	Y28	Z28	X29	Y29	Z29	X30	Y30	Z30	X31	Y31	Z31	X32	Y32	Z32	X33	Y33	Z33	X34	Y34	Z34	X35	Y35	Z35	X36	Y36	Z36	X37	Y37	Z37	X38	Y38	Z38	X39	Y39	Z39	X40	Y40	Z40	X41	Y41	Z41	X42	Y42	Z42	X43	Y43	Z43	X44	Y44	Z44	X45	Y45	Z45	X46	Y46	Z46	X47	Y47	Z47	X48	Y48	Z48	X49	Y49	Z49	X50	Y50	Z50	X51	Y51	Z51	X52	Y52	Z52	X53	Y53	Z53	

519	5.18	155.8903045654297	963.909423828125	105.0338516235352	297.2632751464844	962.6119995117188	108.969367980957	215.9743347167969	1048.159423828125	120.6442031860352	228.9222869873047	1255.805419921875	382.3202209472656	224.3394622802734	1171.87890625	98.74795532226562	219.0637969970703	1444.327270507812	154.4427337646484	234.7267913818359	1367.645385742188	342.02685546875	123.8952026367188	1323.392700195312	96.82704162597656	317.1247253417969	1392.036743164062	120.7904205322266	399.9119873046875	1418.6259765625	219.6821441650391	495.9228820800781	1299.898071289062	212.6309814453125	537.3958129882812	1089.073608398438	248.2268981933594	469.2345886230469	1064.851928710938	174.7022857666016	496.9817504882812	901.032958984375	358.6972045898438	552.0765991210938	880.0845947265625	313.6533508300781	548.3637084960938	1005.410949707031	281.4634399414062	507.0637512207031	732.65283203125	386.6124267578125	555.031982421875	804.050537109375	333.4546203613281	510.2454223632812	817.4208984375	387.5962524414062	59.52683258056641	1422.11865234375	221.9249572753906	-16.36698150634766	1363.514282226562	201.8316955566406	-91.37047576904297	1082.789184570312	212.8817443847656	-51.45542907714844	1059.659301757812	164.4078674316406	-53.273681640625	888.299560546875	334.7068176269531	-112.2004928588867	869.3163452148438	272.0333557128906	-103.024284362793	1024.985107421875	222.5730895996094	-69.29638671875	733.4669799804688	354.276611328125	-69.72116851806641	793.1248779296875	360.3175964355469	-113.3085784912109	785.0362548828125	298.258056640625	132.1015930175781	1643.34521484375	237.2275543212891	302.5662841796875	1671.199584960938	351.3973693847656	172.7502746582031	1672.10205078125	365.7307739257812	306.6495056152344	1645.066040039062	200.882568359375	413.5191040039062	860.4244995117188	244.4125366210938	26.21532249450684	851.9955444335938	221.4014129638672	73.69999694824219	898.1434936523438	324.46630859375	331.9902954101562	896.3473510742188	342.0018310546875	378.0498962402344	442.3675231933594	247.7711639404297	399.1502380371094	593.7205810546875	270.8604125976562	384.7922973632812	37.25164031982422	147.8356170654297	392.9751586914062	293.2136840820312	231.6167755126953	302.2464904785156	40.78130722045898	377.8962097167969	276.8150634765625	47.86185836791992	301.0438232421875	391.6331176757812	40.09568405151367	301.8725891113281	322.0545654296875	42.3901481628418	100.5865631103516	55.54146957397461	462.8900451660156	229.7789916992188	16.56484985351562	719.7075805664062	257.7685852050781	67.44980621337891	37.95633316040039	181.1217041015625	50.13742446899414	323.2355651855469	228.0951385498047	115.7884979248047	43.13811111450195	396.3086853027344	150.8719329833984	47.59018325805664	332.6652526855469	42.42721557617188	43.27175140380859	315.4141540527344	114.9017715454102	29.50032615661621	116.8656616210938	
520	5.19	155.8684387207031	964.0231323242188	105.0749206542969	297.2920227050781	962.7413940429688	108.9924163818359	216.1533203125	1048.322998046875	120.7361602783203	228.7834167480469	1255.704956054688	382.6893920898438	224.5863952636719	1172.046142578125	98.97975921630859	218.9845123291016	1444.270141601562	154.9966278076172	234.5704956054688	1367.565795898438	342.5165100097656	123.9960556030273	1323.4453125	97.16633605957031	317.2465515136719	1392.258666992188	121.3856048583984	399.8412780761719	1418.853881835938	220.4622650146484	495.9742431640625	1300.236206054688	213.6853790283203	537.6483154296875	1089.544189453125	249.9554901123047	469.8170166015625	1064.970581054688	176.26025390625	496.5215454101562	902.5035400390625	361.77490234375	551.7879638671875	881.0523071289062	317.1194763183594	548.3997802734375	1006.126831054688	283.8798522949219	506.2633666992188	734.4074096679688	391.3306274414062	554.5601196289062	805.1994018554688	337.6642456054688	509.6280822753906	819.1417236328125	391.4657897949219	59.46697616577148	1422.076293945312	222.2410888671875	-16.35352897644043	1363.421997070312	202.0703582763672	-91.13150787353516	1082.565307617188	213.3418426513672	-51.21088409423828	1059.3193359375	164.9066619873047	-52.58242034912109	888.6881713867188	336.2307739257812	-111.3462753295898	869.296875	273.4925231933594	-102.6856231689453	1024.803344726562	223.3069458007812	-68.08413696289062	734.023681640625	356.4971923828125	-68.63331604003906	793.7022705078125	362.1872253417969	-112.2779235839844	785.15380859375	300.2207946777344	131.7734680175781	1643.293334960938	237.9991760253906	302.1735229492188	1671.155029296875	352.2126770019531	172.3733062744141	1671.93505859375	366.5436401367188	306.3402404785156	1645.25830078125	201.6695251464844	413.6676940917969	860.4431762695312	244.2356109619141	25.53355026245117	852.5289916992188	221.0128784179688	73.77803039550781	898.09521484375	324.5075988769531	332.1008911132812	896.2871704101562	342.0116882324219	378.1562194824219	442.3713684082031	247.3818206787109	399.3504638671875	593.66064453125	270.589599609375	384.8016967773438	37.19172286987305	147.8446197509766	393.0787048339844	293.2731628417969	231.3912658691406	302.2466735839844	40.76142501831055	377.9190673828125	276.82470703125	47.87485122680664	301.0527038574219	391.6465454101562	40.06756591796875	301.8819274902344	322.1325378417969	42.48444366455078	100.5780563354492	55.61003494262695	462.9050903320312	229.7033538818359	16.57473373413086	719.7291870117188	257.74169921875	67.44770050048828	37.94933319091797	181.1070404052734	50.19905853271484	323.2611694335938	228.0105743408203	115.7914581298828	43.13930511474609	396.2938842773438	150.8746795654297	47.59330368041992	332.6517944335938	42.44340133666992	43.27706527709961	315.4038696289062	114.893424987793	29.4908504486084	116.8584899902344	
521	5.2	155.8533935546875	964.1140747070312	105.1187591552734	297.34375	962.8472290039062	109.0276794433594	216.3213043212891	1048.479736328125	120.8183135986328	228.6388397216797	1255.614624023438	383.046875	224.8393096923828	1172.205078125	99.19521331787109	218.927001953125	1444.173706054688	155.5003814697266	234.4120788574219	1367.49169921875	342.9861755371094	124.0838165283203	1323.491943359375	97.49809265136719	317.3489379882812	1392.463623046875	121.9603652954102	399.7693786621094	1419.06884765625	221.2122802734375	496.0197448730469	1300.553344726562	214.70751953125	537.8611450195312	1089.983276367188	251.6129760742188	470.3346862792969	1065.084350585938	177.7635650634766	496.0274047851562	903.8828735351562	364.7138977050781	551.4697875976562	881.9674072265625	320.3907775878906	548.3998413085938	1006.796325683594	286.1785888671875	505.4299621582031	736.0741577148438	395.7759704589844	554.0503540039062	806.28466796875	341.6277465820312	509.0044250488281	820.7620849609375	395.1095275878906	59.41378784179688	1422.033325195312	222.5319519042969	-16.34457397460938	1363.320434570312	202.3014526367188	-90.85987091064453	1082.329345703125	213.7811737060547	-50.92022705078125	1058.97705078125	165.3838653564453	-51.89562606811523	889.0083618164062	337.6734619140625	-110.4736938476562	869.2462768554688	274.8465881347656	-102.3133087158203	1024.605224609375	223.9975128173828	-66.84444427490234	734.5081176757812	358.5391540527344	-67.52449035644531	794.2027587890625	363.90625	-111.2118835449219	785.22509765625	302.0156860351562	131.4523315429688	1643.233032226562	238.6895141601562	301.7767333984375	1671.13427734375	352.9482421875	171.9975738525391	1671.79541015625	367.2703552246094	306.0461120605469	1645.44482421875	202.3862762451172	413.8089599609375	860.4658203125	244.0945587158203	24.56740760803223	853.1904296875	220.4406280517578	73.83805847167969	898.051025390625	324.5348815917969	332.2048645019531	896.2335815429688	342.0448303222656	378.2497863769531	442.3627014160156	247.0419311523438	399.5308837890625	593.5955200195312	270.3656616210938	384.8058166503906	37.14198303222656	147.8536529541016	393.1681518554688	293.3218994140625	231.1980285644531	302.2437744140625	40.73867416381836	377.9432373046875	276.8333129882812	47.88532257080078	301.0625	391.6553344726562	40.04208755493164	301.8931274414062	322.1857604980469	42.55517578125	100.5936965942383	55.68173217773438	462.9180297851562	229.6130676269531	16.56660652160645	719.7548828125	257.7008361816406	67.44328308105469	37.93979644775391	181.0911407470703	50.26153564453125	323.2835998535156	227.9132232666016	115.7973937988281	43.14191436767578	396.2784118652344	150.8755950927734	47.59676361083984	332.6374816894531	42.45623016357422	43.28160095214844	315.3925170898438	114.8867416381836	29.4798526763916	116.851432800293	
522	5.21	155.8523406982422	964.1818237304688	105.1671905517578	297.4238891601562	962.9325561523438	109.0802459716797	216.4785919189453	1048.625244140625	120.8930816650391	228.4936828613281	1255.53125	383.3882751464844	225.0926513671875	1172.352416992188	99.39400482177734	218.8885192871094	1444.048217773438	155.9568786621094	234.2481384277344	1367.420532226562	343.4321899414062	124.155143737793	1323.5322265625	97.82003784179688	317.42919921875	1392.650634765625	122.5120697021484	399.6948852539062	1419.267333984375	221.93017578125	496.0572204589844	1300.843139648438	215.6994171142578	538.031494140625	1090.386352539062	253.2075042724609	470.7908325195312	1065.186157226562	179.2147979736328	495.4976806640625	905.15478515625	367.5122375488281	551.126953125	882.8196411132812	323.4668273925781	548.3637084960938	1007.413146972656	288.3647766113281	504.5733947753906	737.634521484375	399.93505859375	553.5111694335938	807.2958374023438	345.3404235839844	508.3724365234375	822.267822265625	398.5221862792969	59.36201477050781	1421.985229492188	222.8013305664062	-16.34350395202637	1363.20361328125	202.5276184082031	-90.55949401855469	1082.07666015625	214.2026672363281	-50.58467864990234	1058.629272460938	165.8367004394531	-51.19442367553711	889.2615356445312	339.0083923339844	-109.593635559082	869.1610717773438	276.10107421875	-101.9080505371094	1024.382568359375	224.6448211669922	-65.57413482666016	734.9119873046875	360.3991394042969	-66.39655303955078	794.619140625	365.4718322753906	-110.1173477172852	785.2438354492188	303.6446838378906	131.1387023925781	1643.163818359375	239.2981719970703	301.3818359375	1671.13720703125	353.6029968261719	171.6265716552734	1671.682373046875	367.910888671875	305.7650451660156	1645.619018554688	203.0328979492188	413.938232421875	860.49072265625	244.0090179443359	23.38650894165039	853.93603515625	219.7205963134766	73.88182067871094	898.010009765625	324.5457458496094	332.3016052246094	896.18505859375	342.1043090820312	378.3317565917969	442.3437194824219	246.7452697753906	399.6870727539062	593.5263061523438	270.1834411621094	384.8056335449219	37.10378646850586	147.862548828125	393.2443237304688	293.3626403808594	231.0312957763672	302.2381896972656	40.71442031860352	377.9674987792969	276.8408203125	47.89361953735352	301.0726928710938	391.66064453125	40.01919174194336	301.9056396484375	322.2119750976562	42.59598922729492	100.6330337524414	55.75460433959961	462.9279174804688	229.5175018310547	16.54221725463867	719.7837524414062	257.6435241699219	67.43772125244141	37.92864608764648	181.0746307373047	50.32386779785156	323.3025512695312	227.8133850097656	115.8065643310547	43.14585494995117	396.2628173828125	150.8750457763672	47.59995269775391	332.6232604980469	42.46671295166016	43.28564071655273	315.380615234375	114.8824462890625	29.46821784973145	116.8451766967773	
